<?xml version="1.0" encoding="utf-8"?>
<!-- Generator: Adobe Illustrator 26.0.3, SVG Export Plug-In . SVG Version: 6.00 Build 0)  -->
<svg version="1.1" id="icons" xmlns="http://www.w3.org/2000/svg" xmlns:xlink="http://www.w3.org/1999/xlink" x="0px" y="0px"
	 viewBox="0 0 546 78" style="enable-background:new 0 0 546 78;" xml:space="preserve">
<style type="text/css">
	.st0{fill:#EFCF19;}
	.st1{fill:#A0AAB4;}
	.st2{fill:#CBA27A;}
	.st3{fill:#AAAAAA;}
	.st4{fill:#BEBEBE;}
	.st5{fill:#CCA70F;}
	.st6{fill:#78828C;}
	.st7{fill:#90682A;}
	.st8{fill:#828282;}
	.st9{fill:#D2D2D2;}
	.st10{fill:url(#SVGID_1_);}
</style>
<path class="st0" d="M39,0l5.66,10.56l9.26-7.59l1.19,11.92l11.47-3.47l-3.47,11.47l11.92,1.18l-7.59,9.27L78,39l-10.56,5.66
	l7.59,9.26l-11.92,1.19l3.47,11.47l-11.47-3.47l-1.19,11.92l-9.26-7.59L39,78l-5.66-10.56l-9.27,7.59l-1.18-11.92l-11.47,3.47
	l3.47-11.47L2.97,53.92l7.59-9.26L0,39l10.56-5.66l-7.59-9.27l11.92-1.18l-3.47-11.47l11.47,3.47l1.18-11.92l9.27,7.59L39,0z"/>
<path class="st1" d="M117,2l5.66,8.56l8.5-5.74l1.95,10.07l10.05-2.05l-2.05,10.05l10.07,1.95l-5.74,8.5L154,39l-8.56,5.66l5.74,8.5
	l-10.07,1.95l2.05,10.05l-10.05-2.05l-1.95,10.07l-8.5-5.74L117,76l-5.66-8.56l-8.5,5.74l-1.95-10.07l-10.05,2.05l2.05-10.05
	l-10.07-1.95l5.74-8.5L80,39l8.56-5.66l-5.74-8.5l10.07-1.95l-2.05-10.05l10.05,2.05l1.95-10.07l8.5,5.74L117,2z"/>
<path class="st2" d="M195,4l5.66,6.56l7.73-3.9l2.72,8.23l8.64-0.64l-0.64,8.64l8.23,2.72l-3.9,7.73L230,39l-6.56,5.66l3.9,7.73
	l-8.23,2.72l0.64,8.64l-8.64-0.64l-2.72,8.23l-7.73-3.9L195,74l-5.66-6.56l-7.73,3.9l-2.72-8.23l-8.64,0.64l0.64-8.64l-8.23-2.72
	l3.9-7.73L160,39l6.56-5.66l-3.9-7.73l8.23-2.72l-0.64-8.64l8.64,0.64l2.72-8.23l7.73,3.9L195,4z"/>
<path class="st3" d="M273,6l5.66,4.56l6.97-2.05l3.48,6.38l7.22,0.77l0.78,7.23l6.38,3.48l-2.05,6.97L306,39l-4.56,5.66l2.05,6.97
	l-6.38,3.48l-0.78,7.23l-7.22,0.77l-3.48,6.38l-6.97-2.05L273,72l-5.66-4.56l-6.97,2.05l-3.48-6.38l-7.23-0.77l-0.77-7.23
	l-6.38-3.48l2.05-6.97L240,39l4.56-5.66l-2.05-6.97l6.38-3.48l0.77-7.23l7.23-0.77l3.48-6.38l6.97,2.05L273,6z"/>
<path class="st4" d="M352.63,8l5.66,2.56l6.2-0.2l4.25,4.53l5.81,2.19l2.19,5.81l4.53,4.25l-0.2,6.2l2.56,5.66l-2.56,5.66l0.2,6.2
	l-4.53,4.25l-2.19,5.81l-5.81,2.19l-4.25,4.53l-6.2-0.2L352.63,70l-5.66-2.56l-6.21,0.2l-4.24-4.53l-5.81-2.19l-2.2-5.81l-4.52-4.25
	l0.19-6.2L321.63,39l2.55-5.66l-0.19-6.2l4.52-4.25l2.2-5.81l5.81-2.19l4.24-4.53l6.21,0.2L352.63,8z"/>
<path class="st5" d="M72.1,54.67c-1.44,0.81-2.4,2.27-2.58,3.91c1.6,0.58,3.38,0.44,4.87-0.39c1.48-0.95,2.45-2.53,2.61-4.28
	C75.33,53.54,73.58,53.81,72.1,54.67z M68,53.05c0.21-1.7-0.21-3.41-1.2-4.81c-1.54,0.84-2.61,2.33-2.9,4.06
	c-0.19,1.69,0.36,3.39,1.52,4.64C66.86,56.14,67.82,54.69,68,53.05z M63.21,59.16c0.44-1.65,0.24-3.41-0.55-4.93
	c-1.64,0.63-2.91,1.96-3.45,3.64c-0.4,1.66-0.07,3.41,0.91,4.8C61.66,62.08,62.82,60.77,63.21,59.16z M57.38,61.88
	c0.6-1.62,0.57-3.4-0.09-5c-1.7,0.46-3.09,1.68-3.77,3.3c-0.57,1.63-0.39,3.42,0.48,4.91C55.58,64.63,56.84,63.44,57.38,61.88z
	 M50.87,64.52c1.03-1.37,1.51-3.07,1.34-4.77c-1.76-0.04-3.44,0.72-4.56,2.07c-1.02,1.37-1.38,3.12-1,4.79
	C48.31,66.65,49.89,65.87,50.87,64.52z M74.13,49.4c0.7-1.61,0.62-3.45-0.21-5c-1.59,0.62-2.9,1.82-3.65,3.35
	c-0.76,1.47-0.76,3.21,0,4.68C71.93,52.03,73.34,50.92,74.13,49.4z M69.32,60.15c-1.62,0.35-2.97,1.47-3.61,3
	c1.36,1.03,3.1,1.42,4.77,1.07c1.69-0.47,3.08-1.7,3.75-3.32C72.74,60.04,70.99,59.78,69.32,60.15z M60.31,66.54
	c1.1,1.31,2.71,2.07,4.41,2.1c1.76-0.08,3.38-0.97,4.4-2.4c-1.26-1.16-2.91-1.8-4.62-1.79C62.85,64.43,61.29,65.21,60.31,66.54z
	 M59.44,67.77c-1.57-0.52-3.29-0.25-4.62,0.73c0.65,1.58,1.95,2.79,3.57,3.33c1.7,0.45,3.52,0.08,4.91-1
	C62.44,69.37,61.06,68.28,59.44,67.77z M52.49,69.27c-1.49-0.71-3.23-0.64-4.67,0.17c0.46,1.65,1.62,3.02,3.18,3.74
	c1.64,0.65,3.48,0.51,5-0.37C55.32,71.23,54.07,69.96,52.49,69.27z"/>
<path class="st5" d="M70.33,53.84L69,53.51c-0.13,0.55-3.63,13.48-25.92,13.69v1.36C66.5,68.35,70.3,54,70.33,53.84z M8.48,58.58
	c-0.18-1.64-1.14-3.1-2.58-3.91c-1.48-0.86-3.23-1.13-4.9-0.76c0.16,1.75,1.13,3.33,2.61,4.28C5.1,59.02,6.88,59.16,8.48,58.58z
	 M12.58,56.94c1.16-1.25,1.71-2.95,1.52-4.64c-0.3-1.73-1.39-3.23-2.94-4.06c-0.97,1.4-1.38,3.12-1.16,4.81
	C10.18,54.69,11.14,56.14,12.58,56.94z M17.88,62.67c0.98-1.39,1.31-3.14,0.91-4.8c-0.54-1.68-1.81-3.01-3.45-3.64
	c-0.79,1.52-0.99,3.28-0.55,4.93C15.18,60.77,16.34,62.08,17.88,62.67z M24,65.09c0.85-1.48,1.01-3.25,0.45-4.86
	c-0.68-1.62-2.07-2.84-3.77-3.3c-0.66,1.6-0.69,3.38-0.09,5C21.15,63.47,22.42,64.65,24,65.09z M31.31,66.61
	c0.38-1.67,0.02-3.42-1-4.79c-1.12-1.35-2.8-2.11-4.56-2.07c-0.17,1.7,0.31,3.4,1.34,4.77C28.07,65.87,29.65,66.65,31.31,66.61z
	 M7.71,52.42c0.76-1.47,0.76-3.21,0-4.68c-0.75-1.53-2.06-2.73-3.65-3.35c-0.83,1.55-0.91,3.39-0.21,5
	C4.64,50.91,6.05,52.02,7.71,52.42z M8.68,60.15c-1.67-0.38-3.42-0.13-4.91,0.72c0.67,1.62,2.06,2.85,3.75,3.32
	c1.67,0.35,3.41-0.04,4.77-1.07C11.64,61.6,10.29,60.5,8.68,60.15z M17.69,66.54c-0.98-1.33-2.54-2.11-4.19-2.09
	c-1.71,0-3.36,0.63-4.62,1.79c1.02,1.43,2.64,2.32,4.4,2.4C14.98,68.61,16.59,67.85,17.69,66.54z M18.56,67.77
	c-1.63,0.52-3.01,1.62-3.86,3.1c1.39,1.08,3.21,1.45,4.91,1c1.62-0.54,2.92-1.75,3.57-3.33C21.86,67.54,20.13,67.26,18.56,67.77z
	 M25.51,69.27c-1.56,0.7-2.79,1.97-3.46,3.54c1.52,0.88,3.36,1.02,5,0.37c1.54-0.73,2.68-2.1,3.13-3.74
	C28.74,68.63,27,68.56,25.51,69.27z"/>
<path class="st5" d="M9,53.51l-1.33,0.33C7.7,54,11.5,68.35,34.9,68.56V67.2C12.63,67,9.13,54.06,9,53.51z"/>
<path class="st6" d="M149.23,54.78c-1.4,0.79-2.34,2.21-2.51,3.81c1.56,0.57,3.29,0.43,4.74-0.38c1.44-0.92,2.38-2.46,2.54-4.16
	C152.37,53.69,150.67,53.95,149.23,54.78z M145.26,53.21c0.22-1.65-0.2-3.32-1.16-4.68c-1.51,0.81-2.57,2.26-2.86,3.95
	c-0.19,1.65,0.35,3.3,1.48,4.52C144.14,56.23,145.09,54.81,145.26,53.21L145.26,53.21z M140.58,59.16c0.42-1.61,0.23-3.32-0.54-4.8
	c-1.6,0.61-2.84,1.91-3.36,3.54c-0.4,1.62-0.07,3.32,0.89,4.68C139.07,62,140.19,60.72,140.58,59.16z M134.9,61.8
	c0.57-1.56,0.54-3.28-0.09-4.82c-1.65,0.46-3,1.64-3.67,3.22c-0.55,1.57-0.39,3.29,0.44,4.73C133.13,64.48,134.36,63.32,134.9,61.8
	L134.9,61.8z M128.56,64.37c1-1.33,1.46-2.99,1.3-4.64c-1.71-0.05-3.34,0.69-4.44,2c-0.97,1.34-1.32,3.04-0.94,4.66
	C126.09,66.42,127.61,65.67,128.56,64.37z M151.2,49.65c0.69-1.57,0.61-3.37-0.2-4.88c-1.55,0.59-2.81,1.75-3.55,3.23
	c-0.75,1.42-0.75,3.13,0,4.55C149.06,52.17,150.43,51.12,151.2,49.65z M146.53,60.12c-1.58,0.33-2.89,1.4-3.53,2.88
	c1.33,0.99,3.02,1.36,4.64,1c1.65-0.46,3-1.65,3.65-3.23C149.84,59.97,148.14,59.74,146.53,60.12z M137.75,66.34
	c1.08,1.25,2.65,1.98,4.3,2c1.71-0.09,3.28-0.95,4.28-2.34c-1.23-1.13-2.83-1.75-4.5-1.75C140.21,64.25,138.69,65.02,137.75,66.34z
	 M136.9,67.54c-1.53-0.51-3.21-0.25-4.5,0.71c0.63,1.54,1.9,2.72,3.48,3.25c1.65,0.44,3.42,0.09,4.78-0.94
	C139.83,69.12,138.49,68.04,136.9,67.54z M130.13,69c-1.45-0.68-3.15-0.62-4.55,0.16c0.44,1.6,1.56,2.93,3.06,3.64
	c1.59,0.64,3.39,0.51,4.87-0.35C132.85,70.92,131.65,69.69,130.13,69L130.13,69z"/>
<path class="st6" d="M147.51,54l-1.3-0.32c-0.13,0.54-3.54,13.13-25.23,13.33v1.33C143.78,68.11,147.47,54.11,147.51,54z
	 M87.28,58.59c-0.17-1.6-1.11-3.02-2.51-3.81c-1.44-0.83-3.14-1.09-4.77-0.73c0.16,1.7,1.1,3.24,2.54,4.16
	C83.99,59.02,85.72,59.16,87.28,58.59z M91.28,57c1.12-1.22,1.66-2.86,1.48-4.51c-0.29-1.69-1.35-3.14-2.86-3.95
	c-0.96,1.36-1.38,3.03-1.16,4.68C88.92,54.82,89.86,56.23,91.28,57z M96.43,62.58c0.96-1.36,1.29-3.06,0.89-4.68
	c-0.51-1.62-1.73-2.92-3.32-3.54c-0.77,1.48-0.96,3.19-0.54,4.8C93.84,60.71,94.94,61.99,96.43,62.58z M102.42,64.93
	c0.83-1.44,0.99-3.16,0.44-4.73c-0.67-1.57-2.02-2.75-3.67-3.2c-0.63,1.54-0.66,3.26-0.09,4.82
	C99.64,63.33,100.88,64.49,102.42,64.93z M109.52,66.41c0.38-1.62,0.03-3.32-0.94-4.66c-1.1-1.31-2.73-2.05-4.44-2
	c-0.16,1.65,0.3,3.31,1.3,4.64C106.39,65.69,107.91,66.44,109.52,66.41z M86.53,52.59c0.75-1.42,0.75-3.13,0-4.55
	c-0.72-1.49-1.98-2.66-3.53-3.27c-0.81,1.51-0.89,3.31-0.2,4.88C83.56,51.13,84.92,52.2,86.53,52.59z M87.47,60.12
	c-1.62-0.37-3.32-0.12-4.77,0.7c0.65,1.58,2,2.77,3.65,3.23c1.63,0.34,3.33-0.04,4.65-1.05C90.36,61.52,89.05,60.45,87.47,60.12z
	 M96.25,66.34c-0.96-1.28-2.48-2.03-4.08-2c-1.67,0-3.27,0.62-4.5,1.75c1.01,1.39,2.61,2.24,4.33,2.3
	C93.64,68.34,95.19,67.6,96.25,66.34z M97.1,67.54c-1.58,0.49-2.93,1.56-3.76,3c1.36,1.03,3.13,1.38,4.78,0.94
	c1.58-0.53,2.85-1.71,3.48-3.25C100.3,67.28,98.62,67.02,97.1,67.54z M103.87,69c-1.52,0.69-2.72,1.92-3.38,3.45
	c1.48,0.86,3.28,0.99,4.87,0.35c1.5-0.71,2.62-2.04,3.06-3.64C107.02,68.38,105.32,68.32,103.87,69z"/>
<path class="st6" d="M87.79,53.65l-1.3,0.32c0,0.14,3.73,14.14,26.52,14.34V67C91.33,66.78,87.92,54.19,87.79,53.65z"/>
<path class="st7" d="M226.36,54.9c-1.37,0.76-2.28,2.14-2.44,3.7c1.52,0.55,3.2,0.42,4.61-0.37c1.39-0.89,2.3-2.36,2.47-4
	C229.42,53.86,227.77,54.1,226.36,54.9z M222.5,53.37c0.2-1.61-0.2-3.23-1.13-4.56c-1.47,0.78-2.5,2.2-2.78,3.84
	c-0.18,1.61,0.34,3.21,1.44,4.4C221.41,56.3,222.33,54.93,222.5,53.37z M217.94,59.15c0.42-1.56,0.23-3.23-0.52-4.66
	c-1.56,0.59-2.76,1.85-3.27,3.44c-0.38,1.57-0.07,3.23,0.86,4.55C216.47,61.91,217.56,60.67,217.94,59.15L217.94,59.15z
	 M212.41,61.73c0.56-1.52,0.53-3.19-0.08-4.69c-1.6,0.44-2.92,1.59-3.57,3.12c-0.53,1.53-0.37,3.21,0.43,4.61
	C210.7,64.35,211.9,63.21,212.41,61.73L212.41,61.73z M206.25,64.23c0.97-1.3,1.42-2.91,1.27-4.52c-1.67-0.04-3.27,0.7-4.33,2
	c-0.94,1.31-1.28,2.97-0.91,4.54C203.85,66.27,205.34,65.51,206.25,64.23z M228.28,49.9c0.67-1.53,0.59-3.27-0.2-4.74
	c-1.51,0.59-2.74,1.72-3.45,3.17c-0.73,1.39-0.73,3.05,0,4.44C226.21,52.39,227.54,51.34,228.28,49.9z M223.73,60.09
	c-1.53,0.33-2.81,1.38-3.43,2.82c1.29,0.97,2.94,1.33,4.52,1c1.6-0.45,2.91-1.61,3.55-3.15C226.96,59.96,225.31,59.72,223.73,60.09
	L223.73,60.09z M215.19,66.15c1.04,1.24,2.56,1.97,4.18,2c1.66-0.08,3.2-0.91,4.17-2.27c-1.2-1.09-2.76-1.7-4.38-1.7
	C217.59,64.15,216.11,64.89,215.19,66.15L215.19,66.15z M214.36,67.31c-1.48-0.5-3.11-0.24-4.36,0.69c0.61,1.5,1.85,2.65,3.38,3.16
	c1.61,0.43,3.32,0.09,4.65-0.91C217.22,68.84,215.91,67.79,214.36,67.31z M207.78,68.73c-1.41-0.67-3.07-0.61-4.43,0.16
	c0.44,1.56,1.53,2.85,3,3.54c1.55,0.62,3.29,0.49,4.73-0.35C210.44,70.59,209.26,69.39,207.78,68.73z"/>
<path class="st7" d="M224.68,54.11l-1.26-0.31c-0.13,0.52-3.44,12.77-24.55,13v1.29C221.05,67.86,224.65,54.25,224.68,54.11z
	 M166.08,58.6c-0.16-1.56-1.07-2.94-2.44-3.7c-1.4-0.82-3.06-1.07-4.64-0.72c0.17,1.64,1.08,3.11,2.47,4
	C162.87,58.99,164.56,59.14,166.08,58.6z M170,57.05c1.1-1.19,1.62-2.79,1.44-4.4c-0.28-1.64-1.31-3.06-2.78-3.84
	c-0.93,1.33-1.33,2.95-1.13,4.56C167.7,54.93,168.62,56.3,170,57.05z M175,62.48c0.93-1.32,1.24-2.98,0.86-4.55
	c-0.51-1.59-1.71-2.85-3.27-3.44c-0.75,1.43-0.94,3.1-0.52,4.66C172.45,60.67,173.54,61.91,175,62.48L175,62.48z M180.81,64.77
	c0.8-1.4,0.96-3.08,0.43-4.61c-0.64-1.55-1.96-2.71-3.57-3.16c-0.61,1.5-0.64,3.17-0.08,4.69
	C178.09,63.19,179.29,64.34,180.81,64.77L180.81,64.77z M187.72,66.21c0.37-1.57,0.03-3.23-0.91-4.54c-1.06-1.3-2.66-2.04-4.33-2
	c-0.15,1.61,0.3,3.22,1.27,4.52C184.66,65.47,186.15,66.23,187.72,66.21z M165.35,52.77c0.73-1.39,0.73-3.05,0-4.44
	c-0.71-1.45-1.94-2.58-3.45-3.17c-0.79,1.47-0.87,3.21-0.2,4.74C162.44,51.34,163.77,52.39,165.35,52.77z M166.27,60.09
	c-1.58-0.36-3.23-0.12-4.64,0.68c0.64,1.54,1.95,2.7,3.55,3.15c1.58,0.33,3.23-0.03,4.52-1C169.09,61.47,167.81,60.42,166.27,60.09
	L166.27,60.09z M174.81,66.15c-0.92-1.28-2.42-2.03-4-2c-1.62,0-3.18,0.61-4.38,1.7c0.97,1.36,2.51,2.19,4.17,2.27
	C172.22,68.11,173.76,67.39,174.81,66.15z M175.64,67.31c-1.54,0.49-2.84,1.54-3.64,2.94c1.33,1,3.04,1.34,4.65,0.91
	c1.52-0.52,2.74-1.67,3.35-3.16C178.74,67.08,177.12,66.82,175.64,67.31z M182.22,68.73c-1.47,0.67-2.65,1.86-3.28,3.35
	c1.44,0.84,3.18,0.97,4.73,0.35c1.47-0.69,2.56-1.98,3-3.54C185.3,68.11,183.64,68.05,182.22,68.73z"/>
<path class="st7" d="M166.58,53.8l-1.26,0.31c0,0.14,3.63,13.75,25.8,14v-1.34C170,66.57,166.71,54.32,166.58,53.8L166.58,53.8z"/>
<path class="st8" d="M303.49,55c-1.33,0.74-2.22,2.08-2.38,3.6c1.48,0.54,3.12,0.41,4.49-0.36c1.36-0.87,2.25-2.33,2.4-3.94
	C306.46,53.96,304.85,54.21,303.49,55L303.49,55z M299.73,53.52c0.2-1.56-0.19-3.14-1.09-4.43c-1.43,0.76-2.43,2.14-2.71,3.74
	c-0.17,1.56,0.34,3.12,1.4,4.27C298.67,56.37,299.56,55.03,299.73,53.52z M295.3,59.15c0.41-1.52,0.23-3.14-0.5-4.54
	c-1.53,0.58-2.7,1.83-3.18,3.39c-0.37,1.53-0.07,3.14,0.84,4.42C293.89,61.86,294.95,60.64,295.3,59.15z M289.93,61.65
	c0.54-1.48,0.51-3.1-0.08-4.56c-1.56,0.42-2.84,1.52-3.48,3c-0.51,1.48-0.36,3.12,0.42,4.48C288.25,64.16,289.42,63.07,289.93,61.65
	L289.93,61.65z M283.93,64.08c0.95-1.25,1.39-2.82,1.24-4.39c-1.61-0.03-3.14,0.67-4.17,1.91c-0.93,1.27-1.25,2.88-0.89,4.41
	C281.62,66.02,283.04,65.3,283.93,64.08z M305.36,50.16c0.64-1.49,0.57-3.19-0.2-4.62c-1.47,0.57-2.67,1.68-3.36,3.09
	c-0.7,1.35-0.7,2.96,0,4.31C303.33,52.57,304.63,51.56,305.36,50.16z M300.93,60.06c-1.49,0.32-2.73,1.34-3.33,2.74
	c1.25,0.96,2.85,1.32,4.39,1c1.56-0.43,2.84-1.56,3.46-3.06C304.08,59.96,302.47,59.71,300.93,60.06L300.93,60.06z M292.63,66
	c1.01,1.2,2.49,1.91,4.06,1.93c1.62-0.07,3.11-0.89,4.05-2.21c-1.15-1.09-2.67-1.71-4.25-1.72C294.95,63.99,293.51,64.74,292.63,66z
	 M291.83,67.08c-1.44-0.49-3.04-0.24-4.26,0.67c0.6,1.45,1.8,2.58,3.29,3.07c1.56,0.42,3.23,0.09,4.52-0.89
	C294.59,68.57,293.33,67.55,291.83,67.08z M285.42,68.46c-1.37-0.65-2.98-0.6-4.3,0.15c0.42,1.51,1.47,2.77,2.88,3.45
	c1.5,0.6,3.2,0.47,4.6-0.34C287.99,70.27,286.85,69.11,285.42,68.46L285.42,68.46z"/>
<path class="st8" d="M301.86,54.24l-1.23-0.3c-0.12,0.51-3.34,12.42-23.87,12.61v1.26C298.33,67.62,301.82,54.38,301.86,54.24z
	 M244.89,58.61c-0.16-1.52-1.05-2.86-2.38-3.6c-1.36-0.79-2.97-1.04-4.51-0.7c0.15,1.61,1.04,3.07,2.4,3.94
	C241.77,59.02,243.41,59.15,244.89,58.61z M248.67,57.1c1.06-1.15,1.57-2.71,1.4-4.27c-0.28-1.6-1.28-2.98-2.71-3.74
	c-0.9,1.29-1.3,2.87-1.1,4.43C246.43,55.03,247.33,56.37,248.67,57.1L248.67,57.1z M253.54,62.38c0.91-1.28,1.21-2.89,0.84-4.42
	c-0.49-1.55-1.66-2.78-3.18-3.35c-0.73,1.4-0.91,3.02-0.5,4.54C251.07,60.62,252.12,61.83,253.54,62.38z M259.21,64.61
	c0.78-1.36,0.93-3,0.42-4.48c-0.64-1.48-1.92-2.58-3.48-3c-0.59,1.46-0.62,3.08-0.08,4.56C256.58,63.11,257.75,64.2,259.21,64.61
	L259.21,64.61z M265.92,66c0.35-1.53,0.01-3.14-0.92-4.4c-1.03-1.25-2.58-1.95-4.2-1.91c-0.15,1.57,0.29,3.14,1.24,4.39
	C262.94,65.32,264.39,66.03,265.92,66L265.92,66z M244.18,52.94c0.7-1.35,0.7-2.96,0-4.31c-0.69-1.41-1.89-2.52-3.36-3.09
	c-0.77,1.43-0.84,3.13-0.19,4.62C241.35,51.56,242.65,52.57,244.18,52.94z M245.07,60.06c-1.54-0.35-3.15-0.12-4.52,0.66
	c0.62,1.49,1.89,2.62,3.45,3.06c1.54,0.32,3.14-0.04,4.39-1C247.79,61.39,246.55,60.38,245.07,60.06L245.07,60.06z M253.37,66
	c-0.88-1.26-2.32-2.01-3.86-2c-1.57,0-3.09,0.59-4.25,1.65c0.94,1.32,2.43,2.14,4.05,2.21C250.87,67.85,252.35,67.18,253.37,66z
	 M254.17,67.08c-1.5,0.47-2.76,1.49-3.55,2.85c1.29,0.98,2.96,1.31,4.52,0.89c1.49-0.49,2.69-1.62,3.29-3.07
	C257.21,66.84,255.61,66.59,254.17,67.08z M260.58,68.46c-1.44,0.65-2.58,1.81-3.19,3.26c1.4,0.81,3.1,0.94,4.6,0.34
	c1.42-0.68,2.47-1.94,2.89-3.45C263.56,67.86,261.95,67.81,260.58,68.46L260.58,68.46z"/>
<path class="st8" d="M245.37,53.94l-1.23,0.3c0,0.14,3.53,13.38,25.08,13.57v-1.26C248.71,66.36,245.49,54.45,245.37,53.94z"/>
<circle class="st9" cx="429" cy="39" r="30"/>
<radialGradient id="SVGID_1_" cx="507" cy="39" r="39" gradientUnits="userSpaceOnUse">
	<stop  offset="0" style="stop-color:#FFCA08"/>
	<stop  offset="1" style="stop-color:#FFF2F1"/>
</radialGradient>
<path class="st10" d="M507,0l6.66,5.53l8.26-2.56l4.04,7.66l8.62,0.79l0.79,8.62l7.66,4.03l-2.56,8.27L546,39l-5.53,6.66l2.56,8.26
	l-7.66,4.04l-0.79,8.62l-8.62,0.79l-4.04,7.66l-8.26-2.56L507,78l-6.66-5.53l-8.27,2.56l-4.03-7.66l-8.62-0.79l-0.79-8.62
	l-7.66-4.04l2.56-8.26L468,39l5.53-6.66l-2.56-8.27l7.66-4.03l0.79-8.62l8.62-0.79l4.03-7.66l8.27,2.56L507,0z"/>
</svg>
